<svg width="794" height="68" viewBox="0 0 794 68" fill="none" xmlns="http://www.w3.org/2000/svg" role="img" aria-labelledby="title desc">
  <title id="title">Terminal style GitHub header band</title>
  <desc id="desc">A minimal macOS terminal inspired header strip with window controls and a small reliability log title.</desc>
  <defs>
    <linearGradient id="frameFill" x1="397" y1="8" x2="397" y2="60" gradientUnits="userSpaceOnUse">
      <stop stop-color="#DED9D1"/>
      <stop offset="1" stop-color="#C9C2BA"/>
    </linearGradient>
    <linearGradient id="barFill" x1="397" y1="9" x2="397" y2="26" gradientUnits="userSpaceOnUse">
      <stop stop-color="#E4DED6"/>
      <stop offset="1" stop-color="#CDC6BE"/>
    </linearGradient>
    <linearGradient id="panelFill" x1="397" y1="26" x2="397" y2="59" gradientUnits="userSpaceOnUse">
      <stop stop-color="#1B1D20"/>
      <stop offset="1" stop-color="#212225"/>
    </linearGradient>
    <radialGradient id="screenGlow" cx="0" cy="0" r="1" gradientUnits="userSpaceOnUse" gradientTransform="translate(172 43) rotate(2.94598) scale(230 24)">
      <stop stop-color="#183F35"/>
      <stop offset="0.34" stop-color="#102A24"/>
      <stop offset="1" stop-color="#1A1C1F" stop-opacity="0"/>
    </radialGradient>
    <linearGradient id="scanline" x1="0" y1="0" x2="0" y2="8" gradientUnits="userSpaceOnUse">
      <stop stop-color="#FFFFFF" stop-opacity="0.03"/>
      <stop offset="0.5" stop-color="#FFFFFF" stop-opacity="0"/>
      <stop offset="1" stop-color="#000000" stop-opacity="0.08"/>
    </linearGradient>
    <pattern id="scanlines" x="0" y="0" width="8" height="8" patternUnits="userSpaceOnUse">
      <rect width="794" height="8" fill="url(#scanline)"/>
    </pattern>
    <filter id="shadow" x="0" y="0" width="794" height="68" filterUnits="userSpaceOnUse" color-interpolation-filters="sRGB">
      <feDropShadow dx="0" dy="8" stdDeviation="10" flood-color="#000000" flood-opacity="0.22"/>
    </filter>
    <filter id="glow" x="0" y="0" width="794" height="68" filterUnits="userSpaceOnUse" color-interpolation-filters="sRGB">
      <feGaussianBlur stdDeviation="5" result="blur"/>
      <feColorMatrix in="blur" type="matrix" values="1 0 0 0 0  0 1 0 0 0.28  0 0 1 0 0.14  0 0 0 0.42 0"/>
    </filter>
  </defs>

  <g filter="url(#shadow)">
    <rect x="18" y="8" width="758" height="52" rx="12" fill="url(#frameFill)" stroke="#B4ADA5" stroke-opacity="0.88"/>
    <rect x="18.5" y="8.5" width="757" height="51" rx="11.5" stroke="#FFFFFF" stroke-opacity="0.22"/>

    <rect x="19" y="9" width="756" height="17" rx="11" fill="url(#barFill)"/>
    <path d="M28 26H766" stroke="#B7B0A8"/>
    <path d="M28 27H766" stroke="#FFFFFF" stroke-opacity="0.22"/>

    <circle cx="35" cy="17.5" r="3.2" fill="#FE6157"/>
    <circle cx="48" cy="17.5" r="3.2" fill="#FDBD31"/>
    <circle cx="61" cy="17.5" r="3.2" fill="#2FCB44"/>

    <text x="397" y="20.5" fill="#5C5853" font-family="Menlo, Monaco, Consolas, 'Liberation Mono', monospace" font-size="9.4" text-anchor="middle" letter-spacing="0.06em">reliability.log</text>

    <rect x="19" y="26" width="756" height="33" rx="0 0 11 11" fill="url(#panelFill)"/>
    <rect x="19" y="26" width="756" height="33" rx="0 0 11 11" fill="url(#screenGlow)"/>
    <rect x="19" y="26" width="756" height="33" rx="0 0 11 11" fill="url(#scanlines)" opacity="0.34"/>

    <g filter="url(#glow)">
      <rect x="46" y="37" width="150" height="7" rx="3.5" fill="#90D59B" fill-opacity="0.16"/>
    </g>
  </g>
</svg>
